<?xml version="1.0" encoding="utf-8"?>
<!-- Generator: Adobe Illustrator 18.1.1, SVG Export Plug-In . SVG Version: 6.00 Build 0)  -->
<svg version="1.1" id="Layer_1" xmlns="http://www.w3.org/2000/svg" xmlns:xlink="http://www.w3.org/1999/xlink" x="0px" y="0px"
	 viewBox="0 0 218.2 20.3" enable-background="new 0 0 218.2 20.3" xml:space="preserve">
<g>
	<path fill="none" stroke="#000000" stroke-width="5" stroke-miterlimit="10" d="M0,2.5c9.1,0,9.1,15.3,18.2,15.3
		c9.1,0,9.1-15.3,18.2-15.3c9.1,0,9.1,15.3,18.2,15.3c9.1,0,9.1-15.3,18.2-15.3c9.1,0,9.1,15.3,18.2,15.3c9.1,0,9.1-15.3,18.2-15.3
		c9.1,0,9.1,15.3,18.2,15.3c9.1,0,9.1-15.3,18.2-15.3c9.1,0,9.1,15.3,18.2,15.3c9.1,0,9.1-15.3,18.2-15.3c9.1,0,9.1,15.3,18.2,15.3
		c9.1,0,9.1-15.3,18.2-15.3"/>
</g>
</svg>
